GIL01_free4_ik
nRows=3
nColumns=375

# SIMM Motion File Header:
name GIL01_free4_ik
datacolumns 375
datarows 3
otherdata 1
range 0.15833000 0.17500000
endheader
time	pelvis_tx	pelvis_ty	pelvis_tz	pelvis_tilt	pelvis_list	pelvis_rotation	hip_flexion_r	hip_adduction_r	hip_rotation_r	knee_angle_r	ankle_angle_r	hip_flexion_l	hip_adduction_l	hip_rotation_l	knee_angle_l	ankle_angle_l	lumbar_extension	lumbar_bending	lumbar_rotation	subtalar_angle_r	mtp_angle_r	subtalar_angle_l	mtp_angle_l	asis_r_px	asis_r_py	asis_r_pz	asis_l_px	asis_l_py	asis_l_pz	midasis_px	midasis_py	midasis_pz	psis_r_px	psis_r_py	psis_r_pz	psis_l_px	psis_l_py	psis_l_pz	hip_r_px	hip_r_py	hip_r_pz	hip_l_px	hip_l_py	hip_l_pz	midhip_px	midhip_py	midhip_pz	epicondLat_r_px	epicondLat_r_py	epicondLat_r_pz	epicondMed_r_px	epicondMed_r_py	epicondMed_r_pz	thighwand_r_px	thighwand_r_py	thighwand_r_pz	upperleg1_r_px	upperleg1_r_py	upperleg1_r_pz	upperleg2_r_px	upperleg2_r_py	upperleg2_r_pz	malleolusLat_r_px	malleolusLat_r_py	malleolusLat_r_pz	malleolusMedv_r_px	malleolusMedv_r_py	malleolusMedv_r_pz	shankwand_r_px	shankwand_r_py	shankwand_r_pz	lowerleg1_r_px	lowerleg1_r_py	lowerleg1_r_pz	knee_r_px	knee_r_py	knee_r_pz	ankle_r_px	ankle_r_py	ankle_r_pz	toe_r_px	toe_r_py	toe_r_pz	epicondLat_l_px	epicondLat_l_py	epicondLat_l_pz	epicondMed_l_px	epicondMed_l_py	epicondMed_l_pz	thighwand_l_px	thighwand_l_py	thighwand_l_pz	upperleg1_l_px	upperleg1_l_py	upperleg1_l_pz	upperleg2_l_px	upperleg2_l_py	upperleg2_l_pz	malleolusLat_l_px	malleolusLat_l_py	malleolusLat_l_pz	malleolusMedv_l_px	malleolusMedv_l_py	malleolusMedv_l_pz	shankwand_l_px	shankwand_l_py	shankwand_l_pz	lowerleg1_l_px	lowerleg1_l_py	lowerleg1_l_pz	knee_l_px	knee_l_py	knee_l_pz	ankle_l_px	ankle_l_py	ankle_l_pz	toe_l_px	toe_l_py	toe_l_pz	subclavicle_r_px	subclavicle_r_py	subclavicle_r_pz	subclavicle_l_px	subclavicle_l_py	subclavicle_l_pz	neck_px	neck_py	neck_pz	sternalnotch_px	sternalnotch_py	sternalnotch_pz	xyphoidprocess_px	xyphoidprocess_py	xyphoidprocess_pz	midhip_tx	midhip_ty	midhip_tz	hip_r_tx	hip_r_ty	hip_r_tz	hip_l_tx	hip_l_ty	hip_l_tz	knee_r_tx	knee_r_ty	knee_r_tz	knee_l_tx	knee_l_ty	knee_l_tz	ankle_r_tx	ankle_r_ty	ankle_r_tz	ankle_l_tx	ankle_l_ty	ankle_l_tz	midasis_tx	midasis_ty	midasis_tz	asis_r_tx	asis_r_ty	asis_r_tz	asis_l_tx	asis_l_ty	asis_l_tz	psis_r_tx	psis_r_ty	psis_r_tz	psis_l_tx	psis_l_ty	psis_l_tz	epicondLat_r_tx	epicondLat_r_ty	epicondLat_r_tz	epicondLat_l_tx	epicondLat_l_ty	epicondLat_l_tz	epicondMed_r_tx	epicondMed_r_ty	epicondMed_r_tz	epicondMed_l_tx	epicondMed_l_ty	epicondMed_l_tz	malleolusLat_r_tx	malleolusLat_r_ty	malleolusLat_r_tz	malleolusLat_l_tx	malleolusLat_l_ty	malleolusLat_l_tz	malleolusMedv_r_tx	malleolusMedv_r_ty	malleolusMedv_r_tz	malleolusMedv_l_tx	malleolusMedv_l_ty	malleolusMedv_l_tz	neck_tx	neck_ty	neck_tz	subclavicle_r_tx	subclavicle_r_ty	subclavicle_r_tz	subclavicle_l_tx	subclavicle_l_ty	subclavicle_l_tz	sternalnotch_tx	sternalnotch_ty	sternalnotch_tz	xyphoidprocess_tx	xyphoidprocess_ty	xyphoidprocess_tz	thighwand_r_tx	thighwand_r_ty	thighwand_r_tz	thighwand_l_tx	thighwand_l_ty	thighwand_l_tz	upperleg1_r_tx	upperleg1_r_ty	upperleg1_r_tz	upperleg1_l_tx	upperleg1_l_ty	upperleg1_l_tz	upperleg2_r_tx	upperleg2_r_ty	upperleg2_r_tz	upperleg2_l_tx	upperleg2_l_ty	upperleg2_l_tz	shankwand_r_tx	shankwand_r_ty	shankwand_r_tz	shankwand_l_tx	shankwand_l_ty	shankwand_l_tz	lowerleg1_r_tx	lowerleg1_r_ty	lowerleg1_r_tz	lowerleg1_l_tx	lowerleg1_l_ty	lowerleg1_l_tz	toe_r_tx	toe_r_ty	toe_r_tz	toe_l_tx	toe_l_ty	toe_l_tz	ground_force_vx	ground_force_vy	ground_force_vz	ground_force_px	ground_force_py	ground_force_pz	ground_force_vx	ground_force_vy	ground_force_vz	ground_force_px	ground_force_py	ground_force_pz	ground_torque_x	ground_torque_y	ground_torque_z	ground_torque_x	ground_torque_y	ground_torque_z	ground_marker_px	ground_marker_py	ground_marker_pz	ground_marker_px	ground_marker_py	ground_marker_pz	ground_marker_px	ground_marker_py	ground_marker_pz	ground_marker_px	ground_marker_py	ground_marker_pz	ground_marker_px	ground_marker_py	ground_marker_pz	ground_marker_px	ground_marker_py	ground_marker_pz	ground_marker_px	ground_marker_py	ground_marker_pz	ground_marker_px	ground_marker_py	ground_marker_pz	ground_marker_px	ground_marker_py	ground_marker_pz	ground_marker_px	ground_marker_py	ground_marker_pz	ground_marker_px	ground_marker_py	ground_marker_pz	ground_marker_px	ground_marker_py	ground_marker_pz	ground_marker_px	ground_marker_py	ground_marker_pz	ground_marker_px	ground_marker_py	ground_marker_pz	ground_marker_px	ground_marker_py	ground_marker_pz	ground_marker_px	ground_marker_py	ground_marker_pz	ground_marker_px	ground_marker_py	ground_marker_pz	ground_marker_px	ground_marker_py	ground_marker_pz	ground_marker_px	ground_marker_py	ground_marker_pz	ground_marker_px	ground_marker_py	ground_marker_pz	ground_marker_px	ground_marker_py	ground_marker_pz	ground_marker_px	ground_marker_py	ground_marker_pz	ground_marker_px	ground_marker_py	ground_marker_pz	ground_marker_px	ground_marker_py	ground_marker_pz	ground_marker_px	ground_marker_py	ground_marker_pz	ground_marker_px	ground_marker_py	ground_marker_pz	ground_marker_px	ground_marker_py	ground_marker_pz	ground_marker_px	ground_marker_py	ground_marker_pz	ground_marker_px	ground_marker_py	ground_marker_pz	ground_marker_px	ground_marker_py	ground_marker_pz	ground_marker_px	ground_marker_py	ground_marker_pz	ground_marker_px	ground_marker_py	ground_marker_pz	ground_marker_px	ground_marker_py	ground_marker_pz	ground_marker_px	ground_marker_py	ground_marker_pz	ground_marker_px	ground_marker_py	ground_marker_pz	ground_marker_px	ground_marker_py	ground_marker_pz	ground_marker_px	ground_marker_py	ground_marker_pz
      0.15833000	      0.02636805	      0.78897523	     -0.28366424	     -1.88919553	      5.07718804	     -4.70603273	     -6.27967308	     -7.06336650	     -3.34949802	    -36.13094092	    -23.81862437	     20.50792145	      4.83268692	     -3.86351683	    -13.90737735	     -4.54636036	      0.59182582	     -7.64090572	      7.18673672	      0.00000000	      0.00000000	      0.00000000	      0.00000000	      0.03714835	      0.78067189	     -0.17961245	      0.07241591	      0.79352266	     -0.38578643	      0.03778096	      0.78851552	     -0.28272767	     -0.10313076	      0.83534177	     -0.27282275	     -0.09767858	      0.83828500	     -0.32762005	     -0.03884760	      0.73158786	     -0.22532660	     -0.02724027	      0.74326905	     -0.36103843	     -0.03304394	      0.73742846	     -0.29318252	     -0.13559008	      0.39284445	     -0.16093388	     -0.11601713	      0.38932295	     -0.26628835	     -0.01171282	      0.48932423	     -0.09971136	     -0.06427110	      0.55892376	     -0.14302877	     -0.08503368	      0.47435522	     -0.15725689	     -0.35211935	      0.14767249	     -0.19048472	     -0.33442416	      0.13680264	     -0.24700352	     -0.30616496	      0.25071299	     -0.11497773	     -0.31295779	      0.21486795	     -0.18915943	     -0.08857620	      0.39699203	     -0.21638398	     -0.33329460	      0.14819185	     -0.23579895	     -0.33947114	      0.03782030	     -0.20182049	      0.04694623	      0.41309819	     -0.40628561	      0.03533316	      0.36117858	     -0.27635781	      0.17669207	      0.57035167	     -0.36725033	      0.09598942	      0.61301966	     -0.40023548	      0.07429989	      0.47855672	     -0.36151226	      0.08973530	      0.06730496	     -0.39160146	      0.10356960	      0.06676064	     -0.33736430	      0.08097312	      0.19246949	     -0.46543956	      0.07416817	      0.15097219	     -0.39264184	      0.07493499	      0.42358936	     -0.35119016	      0.10028231	      0.07505104	     -0.34454798	      0.20257481	      0.03812009	     -0.38131564	      0.00663148	      1.15214260	     -0.25599535	      0.00421362	      1.15923385	     -0.33083575	     -0.10285827	      1.19864765	     -0.29967651	     -0.00865954	      1.15312767	     -0.29460300	      0.02884748	      1.07488326	     -0.30083578	     -0.02206300	      0.73455400	     -0.29808000	     -0.04376300	      0.72357100	     -0.23671200	     -0.02979400	      0.73305100	     -0.36593000	     -0.09348500	      0.39154800	     -0.22797800	      0.07117700	      0.42553400	     -0.34954700	     -0.33612000	      0.14906500	     -0.21948900	      0.09876800	      0.06983200	     -0.34717000	      0.03287300	      0.79674900	     -0.28877000	      0.02204100	      0.78939700	     -0.18856500	      0.04370600	      0.80410000	     -0.38897500	     -0.12864800	      0.83611800	     -0.26933500	     -0.12629900	      0.83723400	     -0.32409600	     -0.10182700	      0.39422500	     -0.17368000	      0.07501900	      0.42390100	     -0.40388700	     -0.06864400	      0.38002300	     -0.27178300	      0.06887700	      0.39442000	     -0.31345000	     -0.34631300	      0.16046300	     -0.18524800	      0.09728500	      0.06947000	     -0.38413900	     -0.33008700	      0.14911900	     -0.24321200	      0.10110300	      0.06725400	     -0.31764300	     -0.10360200	      1.20524200	     -0.29861600	      0.00366600	      1.14659200	     -0.25745700	      0.01066200	      1.15002800	     -0.33355800	     -0.00734000	      1.14698500	     -0.29830300	      0.02168800	      1.06504200	     -0.29691700	      0.01063300	      0.49875900	     -0.10582100	      0.17488200	      0.58117300	     -0.35366600	     -0.05252500	      0.55930300	     -0.15275400	      0.09582600	      0.61571300	     -0.39758000	     -0.05705300	      0.47225600	     -0.16482000	      0.11030500	      0.53013700	     -0.39323300	     -0.28568900	      0.26343900	     -0.11418400	      0.11538300	      0.19209200	     -0.45731700	     -0.29798100	      0.22431000	     -0.18696400	      0.09338500	      0.15148100	     -0.38596200	     -0.32614800	      0.05100900	     -0.20247300	      0.20142300	      0.03870400	     -0.36069400	      0.00000000	      0.00000000	      0.00000000	      0.50069073	      0.00000000	     -0.23023007	    -55.43159832	    418.32570141	     21.63034200	      0.08869336	      0.00000000	     -0.35623889	      0.00000000	      0.00000000	      0.00000000	      0.00000000	      0.33418677	      0.00000000	     -0.02206282	      0.73455364	     -0.29807985	     -0.04376307	      0.72357070	     -0.23671217	     -0.02979420	      0.73305053	     -0.36592957	     -0.09348508	      0.39154798	     -0.22797826	      0.07117663	      0.42553383	     -0.34954721	     -0.33612028	      0.14906517	     -0.21948878	      0.09876769	      0.06983218	     -0.34717008	      0.03287328	      0.79674870	     -0.28877038	      0.02204076	      0.78939730	     -0.18856542	      0.04370581	      0.80410010	     -0.38897532	     -0.12864849	      0.83611846	     -0.26933497	     -0.12629946	      0.83723414	     -0.32409644	     -0.10182667	      0.39422548	     -0.17368048	      0.07501908	      0.42390063	     -0.40388706	     -0.06864400	      0.38002300	     -0.27178296	      0.06887744	      0.39442036	     -0.31345025	     -0.34631279	      0.16046290	     -0.18524766	      0.09728508	      0.06947012	     -0.38413858	     -0.33008671	      0.14911942	     -0.24321184	      0.10110336	      0.06725388	     -0.31764254	     -0.10360189	      1.20524180	     -0.29861578	      0.00366593	      1.14659154	     -0.25745735	      0.01066227	      1.15002811	     -0.33355790	     -0.00733963	      1.14698482	     -0.29830316	      0.02168757	      1.06504226	     -0.29691726	      0.01063335	      0.49875882	     -0.10582123	      0.17488211	      0.58117270	     -0.35366642	     -0.05252481	      0.55930299	     -0.15275364	      0.09582568	      0.61571252	     -0.39758006	     -0.05705313	      0.47225612	     -0.16481991	      0.11030464	      0.53013688	     -0.39323312	     -0.28568891	      0.26343930	     -0.11418395	      0.11538292	      0.19209160	     -0.45731720	     -0.29798123	      0.22431013	     -0.18696383	      0.09338530	      0.15148118	     -0.38596216	     -0.32614824	      0.05100930	     -0.20247319	      0.20142251	      0.03870429	     -0.36069378
      0.16667000	      0.03396328	      0.79050164	     -0.28475007	     -1.85079005	      5.08068874	     -4.82796673	     -4.71989275	     -7.20520452	     -3.53864864	    -38.62297238	    -25.20698963	     19.76655778	      4.99375815	     -4.01383574	    -13.76444005	     -3.95599586	      0.48815160	     -7.61686712	      6.89264001	      0.00000000	      0.00000000	      0.00000000	      0.00000000	      0.04452690	      0.78220429	     -0.18067558	      0.08022540	      0.79507049	     -0.38677442	      0.04537439	      0.79004744	     -0.28378929	     -0.09558056	      0.83680585	     -0.27418362	     -0.09001360	      0.83975129	     -0.32896926	     -0.03134828	      0.73308330	     -0.22655037	     -0.01945880	      0.74476905	     -0.36223737	     -0.02540354	      0.73892617	     -0.29439387	     -0.11925324	      0.39214958	     -0.16105572	     -0.09880658	      0.38862420	     -0.26624398	      0.00147521	      0.49230469	     -0.09944633	     -0.05264545	      0.56021257	     -0.14351830	     -0.07097724	      0.47503425	     -0.15744531	     -0.33938876	      0.15170040	     -0.19280888	     -0.32133690	      0.14057005	     -0.24916396	     -0.29253533	      0.25398724	     -0.11683116	     -0.29919318	      0.21827343	     -0.19108836	     -0.07173976	      0.39686571	     -0.21613227	     -0.32013412	      0.15193708	     -0.23794449	     -0.33088293	      0.04161941	     -0.20494389	      0.05048457	      0.41357400	     -0.40675156	      0.03829390	      0.36211196	     -0.27669470	      0.18224907	      0.56925213	     -0.36816617	      0.10207569	      0.61286775	     -0.40120254	      0.07869896	      0.47878353	     -0.36214931	      0.08973072	      0.06732416	     -0.39123896	      0.10359562	      0.06677180	     -0.33700969	      0.08220218	      0.19238944	     -0.46538071	      0.07502161	      0.15114382	     -0.39247611	      0.07861195	      0.42384022	     -0.35169945	      0.10038862	      0.07507773	     -0.34421170	      0.20257538	      0.03805657	     -0.38118213	      0.01429850	      1.15355612	     -0.25670930	      0.01241977	      1.16067875	     -0.33156220	     -0.09482941	      1.20019300	     -0.30114883	     -0.00071684	      1.15457213	     -0.29542420	      0.03675151	      1.07629077	     -0.30142114	     -0.01457500	      0.73537100	     -0.30013700	     -0.03630400	      0.72481500	     -0.23769000	     -0.02204800	      0.73427600	     -0.36687700	     -0.07695200	      0.39168500	     -0.22737200	      0.07486600	      0.42591500	     -0.34980000	     -0.32255700	      0.15384400	     -0.22094700	      0.09883700	      0.06983900	     -0.34708200	      0.04041100	      0.79802400	     -0.28959000	      0.02936000	      0.79069000	     -0.18944700	      0.05146200	      0.80535800	     -0.38973300	     -0.12088700	      0.83703400	     -0.27069900	     -0.11843800	      0.83859800	     -0.32550700	     -0.08577900	      0.39444200	     -0.17315500	      0.07867100	      0.42410200	     -0.40413700	     -0.04035100	      0.37907200	     -0.26986900	      0.06811800	      0.39584700	     -0.31273900	     -0.33277300	      0.16531600	     -0.18673800	      0.09740700	      0.06946100	     -0.38405200	     -0.31636000	      0.15333800	     -0.24457700	      0.10107900	      0.06723300	     -0.31754000	     -0.09501200	      1.20683900	     -0.30020100	      0.01208400	      1.14790300	     -0.25835700	      0.01762300	      1.15100400	     -0.33434000	      0.00029200	      1.14819500	     -0.29886100	      0.02890900	      1.06610500	     -0.29771100	      0.02330200	      0.50108700	     -0.10471900	      0.18053200	      0.57994100	     -0.35431000	     -0.04087600	      0.55965700	     -0.15294600	      0.10191300	      0.61561300	     -0.39820600	     -0.03895300	      0.47384100	     -0.16376800	      0.11353200	      0.52976100	     -0.39350400	     -0.27100800	      0.26700100	     -0.11524600	      0.11685500	      0.19182600	     -0.45726200	     -0.28316300	      0.22787700	     -0.18800800	      0.09430200	      0.15157500	     -0.38593800	     -0.31696000	      0.05489800	     -0.20233500	      0.20139900	      0.03874500	     -0.36034200	      0.00000000	      0.00000000	      0.00000000	      0.50239575	      0.00000000	     -0.23008253	    -51.24294171	    420.65918127	     20.02110673	      0.08875383	      0.00000000	     -0.35612695	      0.00000000	      0.00000000	      0.00000000	      0.00000000	      0.49606226	      0.00000000	     -0.01457544	      0.73537087	     -0.30013713	     -0.03630355	      0.72481549	     -0.23769003	     -0.02204766	      0.73427624	     -0.36687747	     -0.07695242	      0.39168525	     -0.22737178	      0.07486580	      0.42591512	     -0.34980020	     -0.32255712	      0.15384355	     -0.22094727	      0.09883668	      0.06983941	     -0.34708196	      0.04041096	      0.79802400	     -0.28959003	      0.02936018	      0.79069030	     -0.18944740	      0.05146173	      0.80535769	     -0.38973266	     -0.12088692	      0.83703387	     -0.27069873	     -0.11843783	      0.83859807	     -0.32550693	     -0.08577928	      0.39444157	     -0.17315473	      0.07867137	      0.42410195	     -0.40413693	     -0.04035083	      0.37907180	     -0.26986864	      0.06811839	      0.39584652	     -0.31273869	     -0.33277255	      0.16531646	     -0.18673810	      0.09740723	      0.06946095	     -0.38405240	     -0.31635988	      0.15333824	     -0.24457711	      0.10107918	      0.06723264	     -0.31754005	     -0.09501188	      1.20683885	     -0.30020133	      0.01208359	      1.14790332	     -0.25835678	      0.01762273	      1.15100396	     -0.33433953	      0.00029184	      1.14819539	     -0.29886088	      0.02890894	      1.06610513	     -0.29771113	      0.02330245	      0.50108665	     -0.10471912	      0.18053189	      0.57994056	     -0.35430980	     -0.04087634	      0.55965668	     -0.15294614	      0.10191336	      0.61561322	     -0.39820567	     -0.03895297	      0.47384074	     -0.16376813	      0.11353233	      0.52976131	     -0.39350396	     -0.27100801	      0.26700062	     -0.11524627	      0.11685498	      0.19182637	     -0.45726153	     -0.28316316	      0.22787732	     -0.18800773	      0.09430157	      0.15157463	     -0.38593847	     -0.31695971	      0.05489821	     -0.20233494	      0.20139925	      0.03874508	     -0.36034209
      0.17500000	      0.04141650	      0.79200532	     -0.28548864	     -1.83441470	      5.03781218	     -4.94212189	     -3.09463293	     -7.25557527	     -3.73882655	    -41.12501771	    -25.65614134	     19.02608374	      5.08716784	     -3.94570654	    -13.62078571	     -3.32272608	      0.32713830	     -7.60213700	      6.64582247	      0.00000000	      0.00000000	      0.00000000	      0.00000000	      0.05177705	      0.78379361	     -0.18138694	      0.08787795	      0.79649649	     -0.38742581	      0.05282575	      0.79155316	     -0.28450514	     -0.08815287	      0.83830372	     -0.27521365	     -0.08247888	      0.84120532	     -0.32999064	     -0.02400271	      0.73462699	     -0.22737043	     -0.01184864	      0.74620392	     -0.36304332	     -0.01792568	      0.74041546	     -0.29520687	     -0.10273869	      0.39163558	     -0.16096132	     -0.08137931	      0.38822241	     -0.26597177	      0.01462369	      0.49544270	     -0.09889462	     -0.04105003	      0.56159384	     -0.14369786	     -0.05685596	      0.47586939	     -0.15736728	     -0.32621365	      0.15582215	     -0.19530800	     -0.30777755	      0.14450095	     -0.25150043	     -0.27858973	      0.25729528	     -0.11872065	     -0.28504988	      0.22178618	     -0.19309339	     -0.05472720	      0.39700205	     -0.21563938	     -0.30651574	      0.15583346	     -0.24025255	     -0.32004372	      0.04565445	     -0.20781574	      0.05394052	      0.41409753	     -0.40709869	      0.04076811	      0.36291259	     -0.27702820	      0.18759998	      0.56810339	     -0.36832063	      0.10807581	      0.61271650	     -0.40159331	      0.08288074	      0.47897878	     -0.36248275	      0.08955622	      0.06740234	     -0.39114871	      0.10328330	      0.06676123	     -0.33688537	      0.08350247	      0.19246394	     -0.46543161	      0.07571875	      0.15136846	     -0.39250413	      0.08203344	      0.42405411	     -0.35198728	      0.10017993	      0.07509263	     -0.34410334	      0.20239249	      0.03810197	     -0.38103291	      0.02229334	      1.15491444	     -0.25743252	      0.02088350	      1.16200629	     -0.33229863	     -0.08644931	      1.20179899	     -0.30255061	      0.00751423	      1.15594914	     -0.29623771	      0.04482489	      1.07757288	     -0.30197277	     -0.00721800	      0.73611500	     -0.30138500	     -0.02902900	      0.72611600	     -0.23851000	     -0.01453100	      0.73545700	     -0.36768000	     -0.06027100	      0.39216000	     -0.22674200	      0.07828200	      0.42625200	     -0.35013100	     -0.30859200	      0.15872700	     -0.22269500	      0.09859500	      0.06982400	     -0.34708000	      0.04777000	      0.79929000	     -0.29033500	      0.03653100	      0.79204900	     -0.19020200	      0.05900900	      0.80653000	     -0.39046800	     -0.11330300	      0.83802600	     -0.27197500	     -0.11050900	      0.83991000	     -0.32678000	     -0.06959100	      0.39494000	     -0.17260900	      0.08220400	      0.42434700	     -0.40445600	     -0.02162800	      0.37959200	     -0.26958000	      0.06911100	      0.39728600	     -0.31105200	     -0.31873500	      0.17011100	     -0.18843400	      0.09744200	      0.06944200	     -0.38406000	     -0.30207600	      0.15766700	     -0.24627400	      0.10100900	      0.06728600	     -0.31751400	     -0.08651700	      1.20847200	     -0.30165600	      0.02052200	      1.14926000	     -0.25918100	      0.02557000	      1.15218200	     -0.33504500	      0.00846400	      1.14950500	     -0.29952900	      0.03682500	      1.06732500	     -0.29839500	      0.03589500	      0.50362900	     -0.10366500	      0.18587000	      0.57884400	     -0.35448400	     -0.02929100	      0.56021800	     -0.15309600	      0.10790600	      0.61563600	     -0.39844500	     -0.02468700	      0.47462500	     -0.16367500	      0.11749100	      0.52922500	     -0.39305700	     -0.25575400	      0.27016000	     -0.11626600	      0.11869700	      0.19160600	     -0.45718100	     -0.26793900	      0.23151500	     -0.18918600	      0.09531400	      0.15162800	     -0.38603400	     -0.30589000	      0.05916800	     -0.20202500	      0.20134300	      0.03876400	     -0.36010500	      0.00000000	      0.00000000	      0.00000000	      0.50436469	      0.00000000	     -0.22995045	    -46.88099239	    420.09200244	     19.07369392	      0.08879662	      0.00000000	     -0.35608670	      0.00000000	      0.00000000	      0.00000000	      0.00000000	      0.63868530	      0.00000000	     -0.00721807	      0.73611516	     -0.30138451	     -0.02902937	      0.72611642	     -0.23851034	     -0.01453118	      0.73545659	     -0.36767960	     -0.06027067	      0.39216024	     -0.22674242	      0.07828180	      0.42625231	     -0.35013056	     -0.30859226	      0.15872742	     -0.22269459	      0.09859478	      0.06982444	     -0.34708020	      0.04776960	      0.79928958	     -0.29033515	      0.03653051	      0.79204899	     -0.19020225	      0.05900870	      0.80653018	     -0.39046803	     -0.11330333	      0.83802623	     -0.27197525	     -0.11050916	      0.83991033	     -0.32678044	     -0.06959125	      0.39493972	     -0.17260924	      0.08220449	      0.42434654	     -0.40445578	     -0.02162810	      0.37959212	     -0.26958010	      0.06911102	      0.39728591	     -0.31105196	     -0.31873491	      0.17011110	     -0.18843400	      0.09744248	      0.06944229	     -0.38406026	     -0.30207554	      0.15766740	     -0.24627364	      0.10100923	      0.06728591	     -0.31751424	     -0.08651721	      1.20847178	     -0.30165607	      0.02052154	      1.14926016	     -0.25918090	      0.02556960	      1.15218198	     -0.33504501	      0.00846438	      1.14950454	     -0.29952917	      0.03682518	      1.06732523	     -0.29839501	      0.03589477	      0.50362879	     -0.10366508	      0.18587033	      0.57884437	     -0.35448375	     -0.02929145	      0.56021786	     -0.15309621	      0.10790575	      0.61563647	     -0.39844468	     -0.02468733	      0.47462550	     -0.16367507	      0.11749073	      0.52922481	     -0.39305741	     -0.25575379	      0.27016047	     -0.11626637	      0.11869688	      0.19160616	     -0.45718113	     -0.26793933	      0.23151496	     -0.18918647	      0.09531440	      0.15162766	     -0.38603449	     -0.30589041	      0.05916759	     -0.20202459	      0.20134340	      0.03876421	     -0.36010510
